<svg xmlns="http://www.w3.org/2000/svg" width="1024" height="1024" viewBox="0 0 1024 1024">
<g>
<path d="M 810.35 108.83 C811.88,110.53 811.99,128.12 811.75,346.53 L 811.50 582.39 L 804.08 570.45 C757.33,495.11 698.15,426.33 631.15,369.44 L 617.09 357.50 L 617.05 233.29 C617.00,111.48 617.04,109.05 618.93,108.04 C620.23,107.34 651.96,107.00 714.78,107.00 C804.53,107.00 808.76,107.08 810.35,108.83 ZM 812.00 688.31 C812.00,732.06 811.62,764.00 811.11,764.00 C810.62,764.00 810.00,763.44 809.73,762.75 C807.86,757.86 775.96,715.41 756.64,692.09 C687.27,608.36 601.88,536.09 506.00,479.99 C477.32,463.21 435.12,441.57 413.59,432.60 L 409.69 430.97 L 430.59 418.65 C442.09,411.88 476.35,391.63 506.72,373.67 C537.09,355.70 562.25,341.00 562.63,341.00 C563.01,341.00 569.44,345.58 576.91,351.18 C668.37,419.68 744.05,502.37 803.33,598.56 L 812.00 612.62 ZM 810.43 854.43 C809.04,855.82 802.77,856.00 756.58,856.00 L 704.31 856.00 L 694.44 845.25 C678.25,827.62 650.58,799.82 633.25,783.77 L 617.00 768.72 L 617.00 676.36 C617.00,625.56 617.34,584.00 617.75,584.01 C618.80,584.02 639.64,601.65 655.75,616.15 C710.65,665.58 763.60,725.85 803.37,784.15 L 812.00 796.81 L 812.00 824.83 C812.00,848.98 811.78,853.07 810.43,854.43 ZM 659.89 844.02 L 671.15 856.00 L 645.27 856.00 C626.48,856.00 619.07,855.67 618.20,854.80 C617.33,853.93 617.00,846.64 617.00,828.30 C617.00,814.39 617.26,803.00 617.58,803.00 C618.69,803.00 648.66,832.06 659.89,844.02 Z" fill="rgb(32,59,146)"/>
<path d="M 563.78 341.67 C563.12,341.24 562.72,341.00 562.63,341.00 C562.25,341.00 537.09,355.70 506.72,373.67 C476.35,391.63 442.09,411.88 430.59,418.65 L 409.69 430.97 L 413.59 432.60 C422.87,436.46 435.98,442.68 450.20,449.85 C411.17,430.53 370.68,414.10 326.45,399.47 C291.75,387.98 241.55,374.67 211.34,368.94 L 205.19 367.78 L 204.61 355.64 C204.30,348.96 203.58,317.62 203.02,286.00 C202.45,254.38 201.71,219.84 201.36,209.25 L 200.73 190.00 L 202.91 190.00 C205.73,190.00 226.02,194.15 247.50,199.11 C300.88,211.46 358.82,230.84 410.00,253.48 C451.80,271.96 505.82,301.78 540.50,325.51 C549.61,331.75 557.11,336.94 563.78,341.67 ZM 392.17 862.35 C390.50,863.86 382.61,864.00 299.33,864.00 C212.42,864.00 208.24,863.92 206.65,862.17 C205.13,860.49 205.00,848.61 205.00,711.67 C205.00,629.90 205.18,563.00 205.41,563.00 C206.56,563.00 240.81,575.08 256.50,581.01 C295.92,595.93 323.68,608.06 363.25,627.68 L 394.00 642.93 L 394.00 751.81 C394.00,856.02 393.92,860.76 392.17,862.35 ZM 393.76 531.75 C393.90,578.09 393.67,615.98 393.26,615.95 C392.84,615.92 388.45,613.82 383.50,611.29 C341.77,589.89 287.69,567.56 235.00,549.95 L 205.50 540.09 L 205.24 464.03 L 204.99 387.96 L 207.24 388.49 C208.48,388.78 215.57,390.37 223.00,392.03 C272.89,403.18 332.24,422.03 380.00,441.89 L 393.50 447.51 ZM 356.50 209.68 C362.43,213.09 359.51,212.36 337.95,205.06 C303.40,193.35 268.27,184.13 229.00,176.46 C216.07,173.93 204.55,171.68 203.40,171.45 C201.59,171.09 201.20,170.09 200.65,164.27 C200.30,160.55 200.01,149.79 200.01,140.37 C200.00,126.71 200.29,123.00 201.43,122.05 C202.60,121.09 217.00,129.04 277.68,164.12 C318.83,187.91 354.30,208.41 356.50,209.68 ZM 789.65 734.23 C800.31,748.41 808.79,760.30 809.73,762.75 C809.47,762.06 803.95,754.07 797.46,745.00 C794.89,741.39 792.28,737.80 789.65,734.23 ZM 501.66 477.47 C503.14,478.32 504.58,479.16 506.00,479.99 C538.64,499.09 570.07,520.07 600.06,542.73 C586.78,532.71 573.23,523.03 559.41,513.71 C540.08,500.67 520.93,488.64 501.66,477.47 ZM 698.58 460.57 C670.45,430.20 640.11,401.73 607.61,375.18 C639.88,401.42 670.28,429.98 698.58,460.57 ZM 593.65 364.01 C588.91,360.29 584.12,356.61 579.29,352.97 C584.04,356.52 588.68,360.10 593.65,364.01 Z" fill="rgb(238,80,34)"/>
<path d="M 0.00 512.00 L 0.00 0.00 L 512.00 0.00 L 1024.00 0.00 L 1024.00 512.00 L 1024.00 1024.00 L 512.00 1024.00 L 0.00 1024.00 L 0.00 512.00 ZM 392.17 862.35 C393.92,860.76 394.00,856.02 394.00,751.81 L 394.00 642.93 L 363.25 627.68 C323.68,608.06 295.92,595.93 256.50,581.01 C240.81,575.08 206.56,563.00 205.41,563.00 C205.18,563.00 205.00,629.90 205.00,711.67 C205.00,848.61 205.13,860.49 206.65,862.17 C208.24,863.92 212.42,864.00 299.33,864.00 C382.61,864.00 390.50,863.86 392.17,862.35 ZM 659.89 844.02 C648.66,832.06 618.69,803.00 617.58,803.00 C617.26,803.00 617.00,814.39 617.00,828.30 C617.00,846.64 617.33,853.93 618.20,854.80 C619.07,855.67 626.48,856.00 645.27,856.00 L 671.15 856.00 L 659.89 844.02 ZM 810.43 854.43 C811.78,853.07 812.00,848.98 812.00,824.83 L 812.00 796.81 L 803.37 784.15 C763.60,725.85 710.65,665.58 655.75,616.15 C639.64,601.65 618.80,584.02 617.75,584.01 C617.34,584.00 617.00,625.56 617.00,676.36 L 617.00 768.72 L 633.25 783.77 C650.58,799.82 678.25,827.62 694.44,845.25 L 704.31 856.00 L 756.58 856.00 C802.77,856.00 809.04,855.82 810.43,854.43 ZM 812.00 688.31 L 812.00 612.62 L 803.33 598.56 C750.29,512.49 683.04,436.03 605.00,373.07 C582.47,354.90 569.94,345.65 540.50,325.51 C505.82,301.78 451.80,271.96 410.00,253.48 C358.82,230.84 300.88,211.46 247.50,199.11 C226.02,194.15 205.73,190.00 202.91,190.00 L 200.73 190.00 L 201.36 209.25 C201.71,219.84 202.45,254.38 203.02,286.00 C203.58,317.62 204.30,348.96 204.61,355.64 L 205.19 367.78 L 211.34 368.94 C241.55,374.67 291.75,387.98 326.45,399.47 C412.70,428.01 484.77,463.36 559.41,513.71 C652.12,576.25 733.12,654.95 797.46,745.00 C803.95,754.07 809.47,762.06 809.73,762.75 C810.00,763.44 810.62,764.00 811.11,764.00 C811.62,764.00 812.00,732.06 812.00,688.31 ZM 393.76 531.75 L 393.50 447.51 L 380.00 441.89 C332.24,422.03 272.89,403.18 223.00,392.03 C215.57,390.37 208.48,388.78 207.24,388.49 L 204.99 387.96 L 205.24 464.03 L 205.50 540.09 L 235.00 549.95 C287.69,567.56 341.77,589.89 383.50,611.29 C388.45,613.82 392.84,615.92 393.26,615.95 C393.67,615.98 393.90,578.09 393.76,531.75 ZM 810.35 108.83 C808.76,107.08 804.53,107.00 714.78,107.00 C651.96,107.00 620.23,107.34 618.93,108.04 C617.04,109.05 617.00,111.48 617.05,233.29 L 617.09 357.50 L 631.15 369.44 C698.15,426.33 757.33,495.11 804.08,570.45 L 811.50 582.39 L 811.75 346.53 C811.99,128.12 811.88,110.53 810.35,108.83 ZM 356.50 209.68 C354.30,208.41 318.83,187.91 277.68,164.12 C217.00,129.04 202.60,121.09 201.43,122.05 C200.29,123.00 200.00,126.71 200.01,140.37 C200.01,149.79 200.30,160.55 200.65,164.27 C201.20,170.09 201.59,171.09 203.40,171.45 C204.55,171.68 216.07,173.93 229.00,176.46 C268.27,184.13 303.40,193.35 337.95,205.06 C359.51,212.36 362.43,213.09 356.50,209.68 Z" fill="rgb(254,254,254)"/>
</g>
</svg>